<?xml version="1.0" encoding="utf-8"?>
<!-- Generator: Adobe Illustrator 23.0.1, SVG Export Plug-In . SVG Version: 6.00 Build 0)  -->
<svg version="1.1" id="Layer_1" xmlns="http://www.w3.org/2000/svg" xmlns:xlink="http://www.w3.org/1999/xlink" x="0px" y="0px"
	 viewBox="0 0 200 100" style="enable-background:new 0 0 200 100;" xml:space="preserve">
<style type="text/css">
	.st0{fill:#FFFFFF;}
</style>
<path class="st0" d="M155.42,52.04c0.2,0.66,0.3,1.35,0.3,2.06c0,3.3-2.26,6.13-5.47,7.28c-0.48,5.34-5.1,9.98-10.69,9.53
	c-4.58-0.37-4.89-2.71-6.64-3.92c-2.74,3.43-6.71,7.66-11.68,7.66c-0.19,0-0.37,0-0.55-0.01c-2.26,4.02-6.56,6.74-11.5,6.74
	c-3.28,0-6.28-1.19-8.58-3.18c-1.25,0.36-2.57,0.56-3.94,0.56c-2.61,0-6.69-2.3-8.78-3.55c-3.39,3.82-7.15,6.73-12.52,6.73
	c-8.56,0-15.2-5-17.36-13.26c-1.05,0.18-2.14,0.27-3.24,0.27c-7.07,0-13.25-3.78-16.64-9.44c-1.28,0.52-2.68,0.8-4.15,0.8
	c-6.04,0-10.93-4.81-10.93-10.75c0-5.93,4.89-10.74,10.93-10.74c1.47,0,2.87,0.28,4.15,0.8c2.59-4.34,6.84-7.57,11.86-8.85
	c2.12-5.48,7.5-9.37,13.79-9.37c4.46,0,8.45,1.94,11.15,5.02c3.26-3.99,8.15-6.52,13.61-6.52c7.13,0,13.29,4.31,16.14,10.55
	c2.12-1.16,4.55-1.81,7.13-1.81c4.22,0,8.04,1.75,10.78,4.58c2.1-2.61,5.22-4.41,8.83-4.76c7.14-0.69,13.49,4.54,14.18,11.68
	c0.02,0.18,0.03,0.37,0.04,0.55c1.41-1.46,3.44-2.38,5.69-2.38c4.28,0,7.75,3.32,7.75,7.42C159.08,48.4,157.62,50.73,155.42,52.04z"
	/>
</svg>
